<?xml version="1.0" encoding="UTF-8" standalone="no"?>
<svg
   xmlns:dc="http://purl.org/dc/elements/1.1/"
   xmlns:cc="http://creativecommons.org/ns#"
   xmlns:rdf="http://www.w3.org/1999/02/22-rdf-syntax-ns#"
   xmlns:svg="http://www.w3.org/2000/svg"
   xmlns="http://www.w3.org/2000/svg"
   xmlns:sodipodi="http://sodipodi.sourceforge.net/DTD/sodipodi-0.dtd"
   xmlns:inkscape="http://www.inkscape.org/namespaces/inkscape"
   id="svg8"
   version="1.1"
   viewBox="0 0 210 297"
   height="297mm"
   width="210mm"
   sodipodi:docname="batman.svg"
   inkscape:version="0.92.3 (2405546, 2018-03-11)">
  <sodipodi:namedview
     pagecolor="#ffffff"
     bordercolor="#666666"
     borderopacity="1"
     objecttolerance="10"
     gridtolerance="10"
     guidetolerance="10"
     inkscape:pageopacity="0"
     inkscape:pageshadow="2"
     inkscape:window-width="1920"
     inkscape:window-height="1015"
     id="namedview865"
     showgrid="false"
     inkscape:zoom="0.69219276"
     inkscape:cx="138.97425"
     inkscape:cy="734.62195"
     inkscape:window-x="1280"
     inkscape:window-y="0"
     inkscape:window-maximized="1"
     inkscape:current-layer="svg8" />
  <defs
     id="defs2" />
  <metadata
     id="metadata5">
    <rdf:RDF>
      <cc:Work
         rdf:about="">
        <dc:format>image/svg+xml</dc:format>
        <dc:type
           rdf:resource="http://purl.org/dc/dcmitype/StillImage" />
        <dc:title />
      </cc:Work>
    </rdf:RDF>
  </metadata>
  <g
     id="layer1"
     transform="translate(1.9111967,2.6756761)">
    <path
       id="path21"
       d="m -6.6329114,-14.492662 c -1.03369,13.89014877 -1.974484,18.8849018 -7.4140066,21.3166698 -7.249429,4.7543612 -19.209838,0.443773 -18.210166,-11.673077 0.376903,-3.4898034 2.536007,-6.1405908 3.88323,-9.1047398 -7.12054,1.717596 -14.518406,4.4237784 -21.306294,7.8833928 -8.331643,4.735581 -16.4408,10.233254 -19.52672,21.0787952 -0.968422,8.567819 1.0082,14.006954 7.375261,21.431249 4.633649,4.885606 14.355159,11.216319 17.330208,11.178646 -1.530491,-4.791484 -4.220478,-9.508528 -0.992188,-14.717448 3.590284,-2.234363 6.408855,-2.964378 12.501562,0.363802 1.947057,0.83189 4.571763,3.084533 7.044532,4.729428 3.857294,-2.65936 6.263782,-7.199406 11.807031,-6.151563 6.4559456,0.818319 11.2158906,12.116103 14.81667058,19.579166 C 4.9095186,43.18931 11.315989,26.486788 20.503419,32.735461 c 2.06422,1.180227 2.18573,1.172316 6.58151,5.804298 1.67953,-1.493109 11.70936,-11.549574 19.2319,-5.506641 3.57177,3.174131 0.97278,9.590198 -0.79375,14.419792 -1.88245,2.956089 27.00666,-10.35702 25.53229,-30.559375 -2.53369,-11.7842932 -11.31214,-19.2684802 -25.4,-25.6645826 -5.56309,-2.0166804 -11.13226,-4.0424914 -16.00729,-5.0270834 6.32472,8.3777738 6.01328,18.2801918 -3.70417,21.4312498 -6.15625,2.9801292 -16.8189404,-0.88148 -17.0986904,-12.203906 -0.33358,-3.4836804 -0.47262,-6.8350698 -1.15756,-10.3187498 -1.33191,0.739109 -2.43479,2.776043 -3.50572,4.9940104 h -6.91224 c -1.334041,-1.6863284 -2.655468,-4.7732894 -3.90261,-4.5971354 z"
       style="fill:none;stroke:#f40000;stroke-width:0.26458332px;stroke-linecap:butt;stroke-linejoin:miter;stroke-opacity:1"
       inkscape:connector-curvature="0" />
  </g>
</svg>
